HIERARCHY
ROOT hip
{
	OFFSET 0.000000 0.000000 0.000000 
	CHANNELS 6 Xposition Yposition Zposition Zrotation Xrotation Yrotation
	JOINT abdomen
	{
		OFFSET 0.000000 3.402643 0.000000 
		CHANNELS 3 Zrotation Xrotation Yrotation
		JOINT chest
		{
			OFFSET 0.000000 8.438565 -0.680529 
			CHANNELS 3 Zrotation Xrotation Yrotation
			JOINT neck
			{
				OFFSET 0.000000 10.207942 -0.272212 
				CHANNELS 3 Zrotation Xrotation Yrotation
				JOINT head
				{
					OFFSET 0.000000 3.130431 0.000000 
					CHANNELS 3 Zrotation Xrotation Yrotation
					End Site
					{
						OFFSET 0.000000 3.130435 0.000000 
					}
				}
			}
			JOINT lCollar
			{
				OFFSET 3.470700 6.669187 -0.816635 
				CHANNELS 3 Zrotation Xrotation Yrotation
				JOINT lShldr
				{
					OFFSET 3.198488 0.000000 0.000000 
					CHANNELS 3 Zrotation Xrotation Yrotation
					JOINT lForeArm
					{
						OFFSET 10.139888 0.000000 0.000000 
						CHANNELS 3 Zrotation Xrotation Yrotation
						JOINT lHand
						{
							OFFSET 8.370511 0.000000 0.000000 
							CHANNELS 3 Zrotation Xrotation Yrotation
							End Site
							{
								OFFSET 4.083176 0.000000 0.000000 
							}
						}
					}
				}
			}
			JOINT rCollar
			{
				OFFSET -3.470700 6.669187 -0.816635 
				CHANNELS 3 Zrotation Xrotation Yrotation
				JOINT rShldr
				{
					OFFSET -3.198488 0.000000 0.000000 
					CHANNELS 3 Zrotation Xrotation Yrotation
					JOINT rForeArm
					{
						OFFSET -10.139888 0.000000 0.000000 
						CHANNELS 3 Zrotation Xrotation Yrotation
						JOINT rHand
						{
							OFFSET -8.370511 0.000000 0.000000 
							CHANNELS 3 Zrotation Xrotation Yrotation
							End Site
							{
								OFFSET -4.083176 0.000000 0.000000 
							}
						}
					}
				}
			}
		}
	}
	JOINT lThigh
	{
		OFFSET 5.308129 -1.633274 1.361059 
		CHANNELS 3 Zrotation Xrotation Yrotation
		JOINT lShin
		{
			OFFSET -2.041588 -20.007561 0.000000 
			CHANNELS 3 Zrotation Xrotation Yrotation
			JOINT lFoot
			{
				OFFSET 0.000000 -19.190928 -1.224953 
				CHANNELS 3 Zrotation Xrotation Yrotation
				End Site
				{
					OFFSET 0.000000 -2.449906 4.627600 
				}
			}
		}
	}
	JOINT rThigh
	{
		OFFSET -5.308129 -1.633274 1.361059 
		CHANNELS 3 Zrotation Xrotation Yrotation
		JOINT rShin
		{
			OFFSET 2.041588 -20.007561 0.000000 
			CHANNELS 3 Zrotation Xrotation Yrotation
			JOINT rFoot
			{
				OFFSET 0.000000 -19.190928 -1.224953 
				CHANNELS 3 Zrotation Xrotation Yrotation
				End Site
				{
					OFFSET 0.000000 -2.449906 4.627600 
				}
			}
		}
	}
}
MOTION
Frames: 10
Frame Time: 0.033333
-0.830318 48.871258 -2.450897 -0.000010 -0.000010 -0.000000 0.058594 -0.195316 -0.273238 0.507816 0.214837 -1.183543 3.512020 -3.392075 6.135796 -0.723132 2.079912 39.791866 -7.337014 1.111803 3.836985 -67.698997 11.142990 -14.956314 -16.293049 4.776779 -10.187516 10.256380 -1.472194 -0.304017 5.677635 -0.269442 -2.021281 72.939827 15.736414 -10.373324 8.572983 3.593884 19.072248 -6.002429 -0.034737 3.336431 7.221378 -21.097015 2.449345 -4.811670 39.215054 -0.142364 -2.525460 11.662011 -3.070323 -1.049701 -1.340653 0.149590 2.141448 -0.622077 -0.597549 0.691920 0.991693 -20.034718 
-0.830318 48.871258 -2.450897 -0.000010 -0.000010 -0.000000 0.087897 -0.683594 -0.360279 0.253914 -0.468747 -1.374875 2.954405 -3.393937 6.112558 -0.723132 2.079912 39.791866 -7.115169 0.931710 3.664025 -68.305855 11.550286 -12.742721 -16.273634 4.935485 -10.833185 10.027617 -1.257174 -1.637321 3.985414 -0.265826 -3.380470 73.046608 14.955336 -9.969888 10.201931 3.815472 15.826914 -6.601850 -0.570515 2.886835 5.616053 -18.961096 1.681152 -4.396477 35.773006 -0.327499 -2.171889 6.570558 9.226886 -1.288447 -2.709584 0.282757 2.280323 2.374153 -0.700793 0.923792 -0.351202 -24.369055 
-0.830318 48.871258 -2.450897 -0.000010 -0.000010 -0.000000 0.126987 -1.318358 -0.475593 -0.058610 -1.347654 -1.651780 2.230482 -3.395873 6.079453 -0.723132 2.079912 39.791866 -6.853254 0.716051 3.491159 -69.096649 12.015349 -10.056520 -16.340588 5.128466 -11.537067 9.798013 -1.002887 -3.334303 1.818897 -0.162852 -5.104846 73.251862 13.967158 -9.663320 12.264517 3.848989 11.735312 -7.333014 -1.247919 2.380619 4.116210 -16.183580 0.996148 -3.987756 30.829960 -0.371282 -1.527200 2.402407 21.227978 -1.407658 -4.064077 0.246650 2.383731 5.695694 -0.413020 1.287050 -1.920202 -29.121351 
-0.830318 48.871258 -2.450897 -0.000010 -0.000010 -0.000000 0.156341 -1.953117 -0.590375 -0.381149 -2.236280 -1.928936 1.428292 -3.397388 6.051455 -0.723132 2.079912 39.791866 -6.572243 0.493474 3.279447 -69.949013 12.490614 -7.242621 -16.333799 5.342601 -12.333671 9.544776 -0.717542 -5.066642 -0.362598 0.092839 -6.865099 73.444786 12.959282 -9.231239 14.444748 3.594324 7.624070 -8.111319 -1.931196 1.829669 2.684036 -12.958377 0.424085 -3.567112 24.975109 -0.286214 -0.677461 -1.333457 32.980862 -1.493716 -3.506903 0.246429 2.299222 4.872738 -0.246382 1.483848 -1.773409 -33.668118 
-0.830318 48.871258 -2.450897 -0.000010 -0.000010 -0.000000 0.195492 -2.451158 -0.655701 -0.655153 -2.929499 -2.084265 0.577187 -3.398269 6.020544 -0.723132 2.079912 39.782093 -6.282791 0.276840 2.989901 -70.803024 12.970444 -4.419617 -16.085560 5.482020 -13.322419 9.201438 -0.470262 -6.533550 -2.096132 0.446129 -8.344015 73.480881 12.052883 -8.289451 16.478998 3.140474 4.187324 -8.869661 -2.540238 1.219221 1.313255 -8.878974 -0.030222 -3.026568 17.399216 -0.237314 0.239601 -4.229369 44.566513 -1.578869 -2.559381 0.545351 2.209635 3.267544 -0.408059 1.627583 -1.288227 -38.190445 
-0.830318 48.871258 -2.450898 -0.000010 -0.000010 -0.000000 0.234625 -2.646468 -0.633697 -0.821635 -3.241853 -2.019244 -0.283702 -3.398399 5.979278 -0.723132 2.079912 39.782093 -5.986705 0.093635 2.554397 -71.573250 13.460404 -1.757269 -15.366466 5.508908 -14.611022 8.710597 -0.247993 -7.449134 -2.958217 0.790265 -9.274759 73.219765 11.374859 -6.445484 18.109632 2.660772 2.090338 -9.540685 -2.930360 0.509434 -0.009870 -3.490721 -0.621954 -2.420099 6.984381 -0.055215 1.215660 -5.565187 56.032997 -1.685166 -1.780827 0.584327 2.139201 2.009204 -0.390244 1.831889 -0.946581 -42.620743 
-0.830318 48.871258 -2.450898 -0.000010 -0.000010 -0.000000 0.283469 -2.470675 -0.485775 -0.841025 -3.036778 -1.656033 -1.125024 -3.397789 5.948747 -0.723132 2.079912 39.782093 -5.695070 -0.047319 1.953207 -72.196556 13.973758 0.644060 -14.094339 5.295141 -16.266476 8.022795 -0.090381 -7.613573 -2.660486 1.027385 -9.443330 72.584953 10.996008 -3.462075 19.155579 2.426979 1.753336 -10.044334 -3.061525 -0.283983 0.146502 -3.710571 -0.552205 -2.398540 6.912252 0.041715 0.807503 -5.163626 50.062370 -2.596844 -7.203841 0.038927 2.783127 12.859039 -0.018508 1.322565 -2.030217 -35.327858 
-0.830318 48.871258 -2.450898 -0.000010 -0.000010 -0.000000 0.312691 -2.001928 -0.262461 -0.752636 -2.441196 -1.057451 -1.888083 -3.396600 5.923254 -0.723133 2.079913 39.772327 -5.447087 -0.155392 1.322124 -72.667313 14.485198 2.814132 -12.506030 4.885007 -18.007996 7.223234 0.016000 -7.159062 -1.384540 1.127408 -8.943793 71.649429 10.859156 0.367916 19.617821 2.517679 2.805489 -10.400949 -2.951148 -1.006072 0.312254 -3.695771 -0.332053 -2.406284 6.368009 0.002945 0.526146 -4.476040 44.037205 -3.521624 -11.200785 -0.448528 3.257901 20.720621 0.132763 1.670529 -0.616713 -27.819399 
-0.830318 48.871258 -2.450897 -0.000010 -0.000010 -0.000000 0.312593 -1.396461 -0.021679 -0.625253 -1.630760 -0.369356 -2.553312 -3.395075 5.893180 -0.723133 2.079913 39.772327 -5.280500 -0.223794 0.836285 -72.972504 14.949505 4.811661 -10.895009 4.344915 -19.514246 6.464252 0.064652 -6.280740 0.555897 1.154784 -7.960424 70.552025 10.864549 4.574350 19.536642 2.881350 4.711672 -10.593102 -2.668193 -1.496944 0.419064 -3.087741 -0.367983 -2.377328 4.648724 0.235501 0.222612 -3.182456 37.937225 -4.474699 -14.357440 -0.933828 3.654245 26.804268 0.092629 2.054085 1.704134 -20.149971 
-0.830318 48.871258 -2.450897 -0.000010 -0.000010 -0.000000 0.263698 -0.800774 0.189232 -0.498096 -0.800751 0.315305 -3.071796 -3.393578 5.872679 -0.723132 2.079912 39.782093 -5.231580 -0.266530 0.680753 -73.126129 15.339156 6.694592 -9.544133 3.834038 -20.417469 5.900978 0.072641 -5.218988 2.858780 1.160309 -6.654073 69.416069 10.950915 8.714580 18.943026 3.440987 6.926250 -10.626464 -2.279511 -1.570459 0.506173 -1.965599 -0.347966 -2.276072 1.756057 0.399752 -0.052303 -1.252878 31.879978 -5.452381 -17.011656 -1.622805 4.038514 31.802412 0.262306 2.181511 4.580555 -12.445313 
